<?xml version="1.0" encoding="UTF-8" standalone="no"?>
<!-- Created with Inkscape (http://www.inkscape.org/) -->

<svg
   width="210mm"
   height="297mm"
   viewBox="0 0 210 297"
   version="1.1"
   id="svg5"
   sodipodi:docname="Lith_Face afk7.svg"
   inkscape:version="1.1 (c68e22c387, 2021-05-23)"
   xmlns:inkscape="http://www.inkscape.org/namespaces/inkscape"
   xmlns:sodipodi="http://sodipodi.sourceforge.net/DTD/sodipodi-0.dtd"
   xmlns="http://www.w3.org/2000/svg"
   xmlns:svg="http://www.w3.org/2000/svg">
  <sodipodi:namedview
     id="namedview7"
     pagecolor="#505050"
     bordercolor="#eeeeee"
     borderopacity="1"
     inkscape:pageshadow="0"
     inkscape:pageopacity="0"
     inkscape:pagecheckerboard="0"
     inkscape:document-units="mm"
     showgrid="false"
     inkscape:snap-text-baseline="false"
     inkscape:zoom="0.64"
     inkscape:cx="600.78125"
     inkscape:cy="589.84375"
     inkscape:window-width="1680"
     inkscape:window-height="987"
     inkscape:window-x="-8"
     inkscape:window-y="-8"
     inkscape:window-maximized="1"
     inkscape:current-layer="layer1-6" />
  <defs
     id="defs2" />
  <g
     inkscape:label="Capa 1"
     inkscape:groupmode="layer"
     id="layer1">
    <g
       inkscape:label="Capa 1"
       id="layer1-6">
      <path
         style="fill:#f4e3d7;stroke-width:0.622612"
         d="m 125.92497,263.30794 c -9.06853,-1.60276 -19.66133,-7.93348 -28.789869,-15.44857 -6.400094,-5.26887 -17.335484,-19.8139 -22.96783,-28.86063 -2.242368,-3.60171 -4.077024,-6.78703 -4.077024,-7.07852 0,-0.29145 0.323666,2.09422 4.273046,2.46898 30.627507,2.90626 37.602977,-2.56633 56.785307,-1.84282 22.64329,0.85405 34.44842,5.33262 59.74574,3.56002 3.86588,-0.27088 7.67917,-4.44106 7.67663,-4.13256 -0.0108,1.33925 -7.10886,12.97055 -12.10044,19.20856 -10.33101,12.91061 -21.35505,23.52003 -33.17612,28.37559 -8.6984,3.5729 -18.74854,5.27358 -27.36944,3.74995 z"
         id="path5049-6"
         sodipodi:nodetypes="ssssssscsss" />
      <path
         style="fill:#ffffff;stroke-width:0.450748"
         d="m 85.637657,160.29934 c -1.566908,-1.47927 -3.710596,-6.26601 -5.074387,-11.33082 -8.043029,-29.87003 -6.601366,-91.289809 2.605418,-110.999496 3.155426,-6.755081 6.644266,-6.755081 9.799697,0 10.448425,22.367741 10.448425,96.023836 0,118.391576 -2.279076,4.87897 -4.863766,6.26771 -7.330728,3.93874 z"
         id="path5815-6" />
      <path
         style="fill:#ffffff;stroke-width:0.465308"
         d="m 170.14334,160.0572 c -1.61773,-1.52686 -3.83094,-6.4676 -5.23896,-11.69536 -8.30385,-30.83103 -6.81544,-94.226841 2.68992,-114.57064 3.25775,-6.972409 6.85973,-6.972409 10.11749,0 10.78724,23.087369 10.78724,99.11318 0,122.20055 -2.35298,5.03593 -5.02149,6.46935 -7.56845,4.06545 z"
         id="path5815-3-2" />
    </g>
  </g>
</svg>
