<?xml version="1.0" encoding="UTF-8" standalone="no"?>
<!-- Created with Inkscape (http://www.inkscape.org/) -->

<svg
   width="210mm"
   height="297mm"
   viewBox="0 0 210 297"
   version="1.1"
   id="svg5"
   xmlns="http://www.w3.org/2000/svg"
   xmlns:svg="http://www.w3.org/2000/svg">
  <defs
     id="defs2" />
  <g
     id="layer1">
    <path
       style="fill:#f4e3d7;stroke-width:0.791478"
       d="M 91.874577,188.01945 C 77.707943,186.36147 61.160104,180.87096 46.899713,173.09694 36.901639,167.64653 19.81863,154.18785 11.019908,144.82941 7.5169348,141.1036 4.6508789,137.80854 4.6508789,137.507 c 0,-0.3015 3.7959726,2.30632 8.4355061,5.7952 24.338959,18.30261 51.395538,28.47707 81.253118,30.55475 36.460207,2.53712 72.584067,-8.27507 102.834567,-30.7793 4.50646,-3.35249 8.19036,-5.83432 8.18638,-5.51518 -0.0171,1.3854 -12.42549,13.83085 -20.22323,20.28379 -16.13883,13.35546 -32.04014,21.80034 -50.50675,26.8232 -13.58845,3.696 -29.28853,4.92612 -42.755893,3.34999 z"
       id="path5049" />
  </g>
</svg>
