<?xml version="1.0" encoding="UTF-8" standalone="no"?>
<!-- Created with Inkscape (http://www.inkscape.org/) -->

<svg
   width="210mm"
   height="297mm"
   viewBox="0 0 210 297"
   version="1.1"
   id="svg5"
   sodipodi:docname="Lith_voca_hablando3.svg"
   inkscape:version="1.1 (c68e22c387, 2021-05-23)"
   xmlns:inkscape="http://www.inkscape.org/namespaces/inkscape"
   xmlns:sodipodi="http://sodipodi.sourceforge.net/DTD/sodipodi-0.dtd"
   xmlns="http://www.w3.org/2000/svg"
   xmlns:svg="http://www.w3.org/2000/svg">
  <sodipodi:namedview
     id="namedview7"
     pagecolor="#505050"
     bordercolor="#eeeeee"
     borderopacity="1"
     inkscape:pageshadow="0"
     inkscape:pageopacity="0"
     inkscape:pagecheckerboard="0"
     inkscape:document-units="mm"
     showgrid="false"
     inkscape:snap-text-baseline="false"
     inkscape:zoom="0.64"
     inkscape:cx="766.40625"
     inkscape:cy="563.28125"
     inkscape:window-width="1680"
     inkscape:window-height="987"
     inkscape:window-x="-8"
     inkscape:window-y="-8"
     inkscape:window-maximized="1"
     inkscape:current-layer="layer1" />
  <defs
     id="defs2">
    <inkscape:path-effect
       effect="bspline"
       id="path-effect937"
       is_visible="true"
       lpeversion="1"
       weight="33.333333"
       steps="2"
       helper_size="0"
       apply_no_weight="true"
       apply_with_weight="true"
       only_selected="false" />
  </defs>
  <g
     inkscape:label="Capa 1"
     inkscape:groupmode="layer"
     id="layer1">
    <path
       style="fill:#ffffff;stroke:#000000;stroke-width:0.253983px;stroke-linecap:butt;stroke-linejoin:miter;stroke-opacity:1"
       d="m 158.24533,172.3209 c 0.0635,3.79238 -28.82028,29.42337 -56.30794,30.38838 -27.487672,0.96501 -53.577837,-22.73678 -53.641312,-26.52924 -0.06347,-3.79247 25.899215,12.32443 53.387152,11.35967 27.48793,-0.96477 56.49864,-19.01119 56.5621,-15.21881 z"
       id="path935"
       inkscape:path-effect="#path-effect937"
       inkscape:original-d="m 187.19312,150.48177 c -28.88408,25.63179 -57.76782,51.26278 -86.65298,76.89453 -26.090435,-23.702 -52.180602,-47.40378 -78.272076,-71.10678 25.964495,16.11812 51.927184,32.23502 77.891146,48.35261 29.01214,-18.04688 58.02285,-36.0933 87.03391,-54.14036 z"
       sodipodi:nodetypes="ccccc" />
    <path
       style="font-variation-settings:normal;opacity:1;vector-effect:none;fill:#999999;fill-opacity:0;stroke-width:1.5625;stroke-linecap:butt;stroke-linejoin:miter;stroke-miterlimit:4;stroke-dasharray:none;stroke-dashoffset:0;stroke-opacity:1;-inkscape-stroke:none;stop-color:#000000;stop-opacity:1"
       d="M 359.40648,692.89445 C 306.5778,684.6082 251.67792,653.5726 197.84644,601.5625 c -34.23928,-33.0808 -67.37769,-77.29494 -67.37769,-89.8971 0,-5.24139 3.92804,-3.53641 51.06691,22.16586 83.91511,45.75436 148.61659,64.10836 208.77425,59.22341 53.28507,-4.32688 107.6484,-22.77931 190.08037,-64.51861 60.36319,-30.5648 68.82847,-33.66899 68.82847,-25.23915 0,17.1984 -57.9667,85.19008 -103.125,120.95981 -41.51456,32.88356 -83.96689,55.40198 -122.52519,64.99233 -17.75336,4.41568 -48.21664,6.14647 -64.16208,3.6454 z"
       id="path1078"
       transform="scale(0.26458333)" />
  </g>
</svg>
