<?xml version="1.0" encoding="UTF-8" standalone="no"?>
<!-- Created with Inkscape (http://www.inkscape.org/) -->

<svg
   width="210mm"
   height="297mm"
   viewBox="0 0 210 297"
   version="1.1"
   id="svg5"
   sodipodi:docname="Lith_Face afk2.svg"
   inkscape:version="1.1 (c68e22c387, 2021-05-23)"
   xmlns:inkscape="http://www.inkscape.org/namespaces/inkscape"
   xmlns:sodipodi="http://sodipodi.sourceforge.net/DTD/sodipodi-0.dtd"
   xmlns="http://www.w3.org/2000/svg"
   xmlns:svg="http://www.w3.org/2000/svg">
  <sodipodi:namedview
     id="namedview7"
     pagecolor="#505050"
     bordercolor="#eeeeee"
     borderopacity="1"
     inkscape:pageshadow="0"
     inkscape:pageopacity="0"
     inkscape:pagecheckerboard="0"
     inkscape:document-units="mm"
     showgrid="false"
     inkscape:snap-text-baseline="false"
     inkscape:zoom="0.64"
     inkscape:cx="600.78125"
     inkscape:cy="589.84375"
     inkscape:window-width="1680"
     inkscape:window-height="987"
     inkscape:window-x="-8"
     inkscape:window-y="-8"
     inkscape:window-maximized="1"
     inkscape:current-layer="layer1-6" />
  <defs
     id="defs2" />
  <g
     inkscape:label="Capa 1"
     inkscape:groupmode="layer"
     id="layer1">
    <g
       inkscape:label="Capa 1"
       id="layer1-6">
      <path
         style="fill:#f4e3d7;stroke-width:0.767136"
         d="m 102.38226,262.84693 c -13.308641,-1.65798 -28.854274,-7.14849 -42.250996,-14.92251 -9.392551,-5.45041 -25.440941,-18.90909 -33.706775,-28.26753 -3.290819,-3.72581 -5.983295,-7.02087 -5.983295,-7.32241 0,-0.3015 1.15934,1.89647 6.270971,4.14155 33.200177,14.58191 53.243748,22.68931 81.293025,24.76699 34.25203,2.53712 62.81373,-7.86165 93.2992,-23.33789 4.81522,-2.44449 7.69431,-5.83432 7.69057,-5.51518 -0.016,1.3854 -10.43272,13.41744 -17.7582,19.87038 -15.1614,13.35546 -31.33988,22.21375 -48.68808,27.23661 -12.76547,3.696 -27.51469,4.92612 -40.16642,3.34999 z"
         id="path5049-6"
         sodipodi:nodetypes="ssssssscsss" />
      <path
         style="fill:#ffffff;stroke-width:0.450748"
         d="m 69.23348,160.29934 c -1.566908,-1.47927 -3.710596,-6.26601 -5.074387,-11.33082 -8.043029,-29.87003 -6.601366,-91.289809 2.605418,-110.999496 3.155426,-6.755081 6.644266,-6.755081 9.799697,0 10.448406,22.367741 10.448406,96.023836 0,118.391576 -2.279076,4.87897 -4.863766,6.26771 -7.330728,3.93874 z"
         id="path5815-6" />
      <path
         style="fill:#ffffff;stroke-width:0.465308"
         d="m 156.38492,160.0572 c -1.61773,-1.52686 -3.83094,-6.4676 -5.23896,-11.69536 -8.30385,-30.83103 -6.81544,-94.226841 2.68992,-114.57064 3.25775,-6.972409 6.85973,-6.972409 10.11749,0 10.78724,23.087369 10.78724,99.11318 0,122.20055 -2.35298,5.03593 -5.02149,6.46935 -7.56845,4.06545 z"
         id="path5815-3-2" />
    </g>
  </g>
</svg>
