<?xml version="1.0" encoding="UTF-8" standalone="no"?>
<!-- Created with Inkscape (http://www.inkscape.org/) -->

<svg
   width="210mm"
   height="297mm"
   viewBox="0 0 210 297"
   version="1.1"
   id="svg5"
   sodipodi:docname="Lith_Face guiño5.svg"
   inkscape:version="1.1 (c68e22c387, 2021-05-23)"
   xmlns:inkscape="http://www.inkscape.org/namespaces/inkscape"
   xmlns:sodipodi="http://sodipodi.sourceforge.net/DTD/sodipodi-0.dtd"
   xmlns="http://www.w3.org/2000/svg"
   xmlns:svg="http://www.w3.org/2000/svg">
  <sodipodi:namedview
     id="namedview7"
     pagecolor="#505050"
     bordercolor="#eeeeee"
     borderopacity="1"
     inkscape:pageshadow="0"
     inkscape:pageopacity="0"
     inkscape:pagecheckerboard="0"
     inkscape:document-units="mm"
     showgrid="false"
     inkscape:snap-text-baseline="false"
     inkscape:zoom="0.64"
     inkscape:cx="600.78125"
     inkscape:cy="589.84375"
     inkscape:window-width="1680"
     inkscape:window-height="987"
     inkscape:window-x="-8"
     inkscape:window-y="-8"
     inkscape:window-maximized="1"
     inkscape:current-layer="layer1" />
  <defs
     id="defs2" />
  <g
     inkscape:label="Capa 1"
     inkscape:groupmode="layer"
     id="layer1">
    <path
       style="fill:#f4e3d7;stroke-width:0.808248"
       d="M 90.64902,262.84693 C 75.875696,261.18895 58.619191,255.69844 43.748095,247.92442 33.321849,242.47401 15.507256,229.01533 6.3317266,219.65689 c -3.6529896,-3.72581 -6.64178522,-7.02087 -6.64178522,-7.32241 0,-0.3015 3.95853622,2.30632 8.79675942,5.7952 25.3812812,18.30261 53.5965662,28.47707 84.7328062,30.55475 38.021633,2.53712 75.692503,-8.27507 107.238493,-30.7793 4.69945,-3.35249 8.54111,-5.83432 8.53696,-5.51518 -0.0178,1.3854 -12.95761,13.83085 -21.0893,20.28379 -16.82998,13.35546 -33.41226,21.80034 -52.66971,26.8232 -14.17038,3.696 -30.54282,4.92612 -44.58693,3.34999 z"
       id="path5049" />
    <path
       style="fill:#ffffff;stroke-width:0.450748"
       d="m 59.179307,160.29934 c -1.566908,-1.47927 -3.710596,-6.26601 -5.074387,-11.33082 -8.043029,-29.87003 -6.601366,-91.289809 2.605418,-110.999496 3.155426,-6.755081 6.644266,-6.755081 9.799697,0 10.448406,22.367741 10.448406,96.023836 0,118.391576 -2.279076,4.87897 -4.863766,6.26771 -7.330728,3.93874 z"
       id="path5815" />
    <path
       style="fill:#ffffff;stroke-width:0.2583"
       d="m 143.40877,109.8683 c -2.61691,-0.29086 -6.1971,-1.23205 -8.47477,-2.22791 -13.43266,-5.87318 -11.02494,-17.949815 4.35133,-21.825223 5.26988,-1.328214 11.0966,-1.328214 16.36648,0 17.4499,4.398047 17.4499,18.880643 0,23.278683 -3.80627,0.95933 -8.12297,1.23239 -12.24304,0.77445 z"
       id="path5815-3" />
    <g
       inkscape:label="Capa 1"
       id="layer1-2">
      <path
         style="fill:#f4e3d7;stroke-width:0.808248"
         d="M 90.64902,262.84693 C 75.875696,261.18895 58.619191,255.69844 43.748095,247.92442 33.321849,242.47401 15.507256,229.01533 6.3317266,219.65689 c -3.6529896,-3.72581 -6.64178522,-7.02087 -6.64178522,-7.32241 0,-0.3015 3.95853622,2.30632 8.79675942,5.7952 25.3812812,18.30261 53.5965662,28.47707 84.7328062,30.55475 38.021633,2.53712 75.692503,-8.27507 107.238493,-30.7793 4.69945,-3.35249 8.54111,-5.83432 8.53696,-5.51518 -0.0178,1.3854 -12.95761,13.83085 -21.0893,20.28379 -16.82998,13.35546 -33.41226,21.80034 -52.66971,26.8232 -14.17038,3.696 -30.54282,4.92612 -44.58693,3.34999 z"
         id="path5049-2" />
    </g>
  </g>
</svg>
