<?xml version="1.0" encoding="UTF-8" standalone="no"?>
<!-- Created with Inkscape (http://www.inkscape.org/) -->

<svg
   width="210mm"
   height="297mm"
   viewBox="0 0 210 297"
   version="1.1"
   id="svg5"
   sodipodi:docname="Lith_Face spiking9.svg"
   inkscape:version="1.1 (c68e22c387, 2021-05-23)"
   xmlns:inkscape="http://www.inkscape.org/namespaces/inkscape"
   xmlns:sodipodi="http://sodipodi.sourceforge.net/DTD/sodipodi-0.dtd"
   xmlns="http://www.w3.org/2000/svg"
   xmlns:svg="http://www.w3.org/2000/svg">
  <sodipodi:namedview
     id="namedview7"
     pagecolor="#505050"
     bordercolor="#eeeeee"
     borderopacity="1"
     inkscape:pageshadow="0"
     inkscape:pageopacity="0"
     inkscape:pagecheckerboard="0"
     inkscape:document-units="mm"
     showgrid="false"
     inkscape:snap-text-baseline="false"
     inkscape:zoom="0.64"
     inkscape:cx="600.78125"
     inkscape:cy="464.84375"
     inkscape:window-width="1680"
     inkscape:window-height="987"
     inkscape:window-x="-8"
     inkscape:window-y="-8"
     inkscape:window-maximized="1"
     inkscape:current-layer="layer1" />
  <defs
     id="defs2" />
  <g
     inkscape:label="Capa 1"
     inkscape:groupmode="layer"
     id="layer1">
    <path
       style="fill:#f4e3d7;stroke-width:0.808248"
       d="M 90.64902,262.84693 C 75.875696,261.18895 58.619191,255.69844 43.748095,247.92442 33.321849,242.47401 15.507256,229.01533 6.3317266,219.65689 c -3.6529896,-3.72581 -6.64178522,-7.02087 -6.64178522,-7.32241 0,-0.3015 3.95853622,2.30632 8.79675942,5.7952 25.3812812,18.30261 53.5965662,28.47707 84.7328062,30.55475 38.021633,2.53712 75.692503,-8.27507 107.238493,-30.7793 4.69945,-3.35249 8.54111,-5.83432 8.53696,-5.51518 -0.0178,1.3854 -12.95761,13.83085 -21.0893,20.28379 -16.82998,13.35546 -33.41226,21.80034 -52.66971,26.8232 -14.17038,3.696 -30.54282,4.92612 -44.58693,3.34999 z"
       id="path5049" />
    <path
       style="fill:#ffffff;stroke-width:0.450748"
       d="m 59.179307,160.29934 c -1.566908,-1.47927 -3.710596,-6.26601 -5.074387,-11.33082 -8.043029,-29.87003 -6.601366,-91.289809 2.605418,-110.999496 3.155426,-6.755081 6.644266,-6.755081 9.799697,0 10.448406,22.367741 10.448406,96.023836 0,118.391576 -2.279076,4.87897 -4.863766,6.26771 -7.330728,3.93874 z"
       id="path5815" />
    <path
       style="fill:#ffffff;stroke-width:0.465308"
       d="m 146.33069,160.0572 c -1.61773,-1.52686 -3.83094,-6.4676 -5.23896,-11.69536 -8.30385,-30.83103 -6.81544,-94.226841 2.68992,-114.57064 3.25775,-6.972409 6.85973,-6.972409 10.11749,0 10.78724,23.087369 10.78724,99.11318 0,122.20055 -2.35298,5.03593 -5.02149,6.46935 -7.56845,4.06545 z"
       id="path5815-3" />
    <g
       inkscape:label="Capa 1"
       id="layer1-2">
      <path
         style="fill:#f4e3d7;stroke-width:0.808248"
         d="M 90.64902,262.84693 C 75.875696,261.18895 58.619191,255.69844 43.748095,247.92442 33.321849,242.47401 15.507256,229.01533 6.3317266,219.65689 c -3.6529896,-3.72581 -6.64178522,-7.02087 -6.64178522,-7.32241 0,-0.3015 3.95853622,2.30632 8.79675942,5.7952 25.3812812,18.30261 53.5965662,28.47707 84.7328062,30.55475 38.021633,2.53712 75.692503,-8.27507 107.238493,-30.7793 4.69945,-3.35249 8.54111,-5.83432 8.53696,-5.51518 -0.0178,1.3854 -12.95761,13.83085 -21.0893,20.28379 -16.82998,13.35546 -33.41226,21.80034 -52.66971,26.8232 -14.17038,3.696 -30.54282,4.92612 -44.58693,3.34999 z"
         id="path5049-2" />
      <path
         style="fill:#ffffff;stroke-width:0.450748"
         d="m 59.179307,160.29934 c -1.566908,-1.47927 -3.710596,-6.26601 -5.074387,-11.33082 -8.043029,-29.87003 -6.601366,-91.289809 2.605418,-110.999496 3.155426,-6.755081 6.644266,-6.755081 9.799697,0 10.448406,22.367741 10.448406,96.023836 0,118.391576 -2.279076,4.87897 -4.863766,6.26771 -7.330728,3.93874 z"
         id="path5815-52" />
      <path
         style="fill:#ffffff;stroke-width:0.465308"
         d="m 146.33069,160.0572 c -1.61773,-1.52686 -3.83094,-6.4676 -5.23896,-11.69536 -8.30385,-30.83103 -6.81544,-94.226841 2.68992,-114.57064 3.25775,-6.972409 6.85973,-6.972409 10.11749,0 10.78724,23.087369 10.78724,99.11318 0,122.20055 -2.35298,5.03593 -5.02149,6.46935 -7.56845,4.06545 z"
         id="path5815-3-4" />
      <g
         id="layer1-7">
        <path
           style="fill:#f4e3d7;stroke-width:0.808248"
           d="M 90.64902,266.02193 C 75.875696,264.36395 58.619191,257.81511 43.748095,250.04109 33.321849,244.59068 15.507256,229.01533 6.3317266,219.65689 c -3.6529896,-3.72581 -6.64178522,-7.02087 -6.64178522,-7.32241 0,-0.3015 3.95853622,2.30632 8.79675942,5.7952 25.3812812,18.30261 53.5965662,15.77707 84.7328062,17.85475 38.021633,2.53712 75.692503,4.42493 107.238493,-18.0793 4.69945,-3.35249 8.54111,-5.83432 8.53696,-5.51518 -0.0178,1.3854 -12.95761,13.83085 -21.0893,20.28379 -16.82998,13.35546 -33.41226,23.91701 -52.66971,28.93987 -14.17038,3.696 -30.54282,5.98445 -44.58693,4.40832 z"
           id="path5049-5" />
        <path
           style="fill:#ffffff;stroke-width:0.450748"
           d="m 59.179307,160.29934 c -1.566908,-1.47927 -3.710596,-6.26601 -5.074387,-11.33082 -8.043029,-29.87003 -6.601366,-91.289809 2.605418,-110.999496 3.155426,-6.755081 6.644266,-6.755081 9.799697,0 10.448406,22.367741 10.448406,96.023836 0,118.391576 -2.279076,4.87897 -4.863766,6.26771 -7.330728,3.93874 z"
           id="path5815-8" />
        <path
           style="fill:#ffffff;stroke-width:0.465308"
           d="m 146.33069,160.0572 c -1.61773,-1.52686 -3.83094,-6.4676 -5.23896,-11.69536 -8.30385,-30.83103 -6.81544,-94.226841 2.68992,-114.57064 3.25775,-6.972409 6.85973,-6.972409 10.11749,0 10.78724,23.087369 10.78724,99.11318 0,122.20055 -2.35298,5.03593 -5.02149,6.46935 -7.56845,4.06545 z"
           id="path5815-3-2" />
      </g>
      <g
         inkscape:label="Capa 1"
         id="layer1-3">
        <path
           style="fill:#f4e3d7;stroke-width:0.808248"
           d="M 90.64902,269.19693 C 75.875696,267.53895 58.619191,260.99011 43.748095,253.21609 33.321849,247.76568 15.507256,229.01533 6.3317266,219.65689 c -3.6529896,-3.72581 -6.64178522,-7.02087 -6.64178522,-7.32241 0,-0.3015 3.95853622,2.30632 8.79675942,5.7952 27.8617502,5.90027 53.5965662,3.07707 84.7328062,5.15475 38.021633,2.53712 75.692503,3.48235 107.238493,-5.3793 5.55758,-1.56119 8.54111,-5.83432 8.53696,-5.51518 -0.0178,1.3854 -12.95761,13.83085 -21.0893,20.28379 -16.82998,13.35546 -33.41226,27.09201 -52.66971,32.11487 -14.17038,3.696 -30.54282,5.98445 -44.58693,4.40832 z"
           id="path5049-9"
           inkscape:export-filename="C:\Users\Victor\Desktop\speak_animated3.png"
           inkscape:export-xdpi="96"
           inkscape:export-ydpi="96"
           sodipodi:nodetypes="scsscssccss" />
        <path
           style="fill:#ffffff;stroke-width:0.450748"
           d="m 59.179307,160.29934 c -1.566908,-1.47927 -3.710596,-6.26601 -5.074387,-11.33082 -8.043029,-29.87003 -6.601366,-91.289809 2.605418,-110.999496 3.155426,-6.755081 6.644266,-6.755081 9.799697,0 10.448406,22.367741 10.448406,96.023836 0,118.391576 -2.279076,4.87897 -4.863766,6.26771 -7.330728,3.93874 z"
           id="path5815-5" />
        <path
           style="fill:#ffffff;stroke-width:0.465308"
           d="m 146.33069,160.0572 c -1.61773,-1.52686 -3.83094,-6.4676 -5.23896,-11.69536 -8.30385,-30.83103 -6.81544,-94.226841 2.68992,-114.57064 3.25775,-6.972409 6.85973,-6.972409 10.11749,0 10.78724,23.087369 10.78724,99.11318 0,122.20055 -2.35298,5.03593 -5.02149,6.46935 -7.56845,4.06545 z"
           id="path5815-3-0"
           inkscape:export-filename="C:\Users\Victor\Desktop\path5815-3.png"
           inkscape:export-xdpi="96"
           inkscape:export-ydpi="96" />
      </g>
    </g>
  </g>
</svg>
