<?xml version="1.0" encoding="UTF-8" standalone="no"?>
<svg
   width="24"
   height="24"
   viewBox="0 0 24 24"
   version="1.1"
   id="svg4"
   sodipodi:docname="bx-circle_w.svg"
   inkscape:version="1.1 (c68e22c387, 2021-05-23)"
   xmlns:inkscape="http://www.inkscape.org/namespaces/inkscape"
   xmlns:sodipodi="http://sodipodi.sourceforge.net/DTD/sodipodi-0.dtd"
   xmlns="http://www.w3.org/2000/svg"
   xmlns:svg="http://www.w3.org/2000/svg">
  <defs
     id="defs8" />
  <sodipodi:namedview
     id="namedview6"
     pagecolor="#505050"
     bordercolor="#eeeeee"
     borderopacity="1"
     inkscape:pageshadow="0"
     inkscape:pageopacity="0"
     inkscape:pagecheckerboard="0"
     showgrid="false"
     inkscape:zoom="22.185475"
     inkscape:cx="7.5049103"
     inkscape:cy="14.85206"
     inkscape:window-width="1680"
     inkscape:window-height="987"
     inkscape:window-x="-8"
     inkscape:window-y="-8"
     inkscape:window-maximized="1"
     inkscape:current-layer="svg4" />
  <path
     d="M12,2C6.486,2,2,6.486,2,12c0.001,5.515,4.487,10.001,10,10.001c5.514,0,10-4.486,10.001-10.001 C22.001,6.486,17.515,2,12,2z M12,20.001c-4.41,0-7.999-3.589-8-8.001c0-4.411,3.589-8,8-8c4.412,0,8.001,3.589,8.001,8 C20,16.412,16.411,20.001,12,20.001z"
     id="path2" />
  <path
     style="font-variation-settings:normal;opacity:1;vector-effect:none;fill:#ffffff;fill-opacity:0;stroke-width:0.0318725;stroke-linecap:butt;stroke-linejoin:miter;stroke-miterlimit:4;stroke-dasharray:none;stroke-dashoffset:0;stroke-opacity:1;-inkscape-stroke:none;stop-color:#000000;stop-opacity:1"
     d="M 11.49004,19.967731 C 9.8156743,19.857251 8.2437533,19.233668 6.9482072,18.16598 5.5057827,16.977247 4.5226872,15.335602 4.1623464,13.513944 4.0639027,13.016274 4.0285785,12.6068 4.028993,11.968127 4.0294121,11.322467 4.0816448,10.829377 4.2109227,10.250665 4.7515817,7.8304112 6.4806923,5.7251771 8.7649402,4.7060387 9.3860937,4.4289052 10.092734,4.2192802 10.772908,4.1103739 c 0.665819,-0.1066076 1.698486,-0.1125393 2.374179,-0.013637 1.288873,0.1886542 2.582495,0.7307041 3.653825,1.531016 0.400295,0.2990311 1.268111,1.1653244 1.562239,1.5594984 0.881592,1.1814594 1.395288,2.4650884 1.575251,3.9362547 0.05161,0.42189 0.0422,1.42991 -0.01754,1.880478 -0.182625,1.377204 -0.713677,2.67925 -1.548612,3.796928 -0.302373,0.40477 -1.166565,1.268962 -1.571335,1.571335 -1.537253,1.148369 -3.437111,1.719122 -5.310872,1.595484 z"
     id="path47" />
  <path
     style="font-variation-settings:normal;opacity:1;vector-effect:none;fill:#999999;fill-opacity:0;stroke-width:0.0318725;stroke-linecap:butt;stroke-linejoin:miter;stroke-miterlimit:4;stroke-dasharray:none;stroke-dashoffset:0;stroke-opacity:1;-inkscape-stroke:none;stop-color:#000000;stop-opacity:1"
     d="M 11.49004,19.967731 C 9.8156743,19.857251 8.2437533,19.233668 6.9482072,18.16598 5.5057827,16.977247 4.5226872,15.335602 4.1623464,13.513944 4.0639027,13.016274 4.0285785,12.6068 4.028993,11.968127 4.0294121,11.322467 4.0816448,10.829377 4.2109227,10.250665 4.7515817,7.8304112 6.4806923,5.7251771 8.7649402,4.7060387 9.3860937,4.4289052 10.092734,4.2192802 10.772908,4.1103739 c 0.665819,-0.1066076 1.698486,-0.1125393 2.374179,-0.013637 1.288873,0.1886542 2.582495,0.7307041 3.653825,1.531016 0.400295,0.2990311 1.268111,1.1653244 1.562239,1.5594984 0.881592,1.1814594 1.395288,2.4650884 1.575251,3.9362547 0.05161,0.42189 0.0422,1.42991 -0.01754,1.880478 -0.182625,1.377204 -0.713677,2.67925 -1.548612,3.796928 -0.302373,0.40477 -1.166565,1.268962 -1.571335,1.571335 -1.537253,1.148369 -3.437111,1.719122 -5.310872,1.595484 z"
     id="path160" />
  <path
     style="font-variation-settings:normal;opacity:1;vector-effect:none;fill:#999999;fill-opacity:0;stroke-width:0.0318725;stroke-linecap:butt;stroke-linejoin:miter;stroke-miterlimit:4;stroke-dasharray:none;stroke-dashoffset:0;stroke-opacity:1;-inkscape-stroke:none;stop-color:#000000;stop-opacity:1"
     d="M 11.49004,19.967731 C 9.8156743,19.857251 8.2437533,19.233668 6.9482072,18.16598 5.5057827,16.977247 4.5226872,15.335602 4.1623464,13.513944 4.0639027,13.016274 4.0285785,12.6068 4.028993,11.968127 4.0294121,11.322467 4.0816448,10.829377 4.2109227,10.250665 4.7515817,7.8304112 6.4806923,5.7251771 8.7649402,4.7060387 9.3860937,4.4289052 10.092734,4.2192802 10.772908,4.1103739 c 0.665819,-0.1066076 1.698486,-0.1125393 2.374179,-0.013637 1.288873,0.1886542 2.582495,0.7307041 3.653825,1.531016 0.400295,0.2990311 1.268111,1.1653244 1.562239,1.5594984 0.881592,1.1814594 1.395288,2.4650884 1.575251,3.9362547 0.05161,0.42189 0.0422,1.42991 -0.01754,1.880478 -0.182625,1.377204 -0.713677,2.67925 -1.548612,3.796928 -0.302373,0.40477 -1.166565,1.268962 -1.571335,1.571335 -1.537253,1.148369 -3.437111,1.719122 -5.310872,1.595484 z"
     id="path199" />
  <path
     style="font-variation-settings:normal;opacity:1;vector-effect:none;fill:#999999;fill-opacity:0;stroke-width:0.0318725;stroke-linecap:butt;stroke-linejoin:miter;stroke-miterlimit:4;stroke-dasharray:none;stroke-dashoffset:0;stroke-opacity:1;-inkscape-stroke:none;stop-color:#000000;stop-opacity:1"
     d="M 11.49004,19.967731 C 9.8156743,19.857251 8.2437533,19.233668 6.9482072,18.16598 5.5057827,16.977247 4.5226872,15.335602 4.1623464,13.513944 4.0639027,13.016274 4.0285785,12.6068 4.028993,11.968127 4.0294121,11.322467 4.0816448,10.829377 4.2109227,10.250665 4.7515817,7.8304112 6.4806923,5.7251771 8.7649402,4.7060387 9.3860937,4.4289052 10.092734,4.2192802 10.772908,4.1103739 c 0.665819,-0.1066076 1.698486,-0.1125393 2.374179,-0.013637 1.288873,0.1886542 2.582495,0.7307041 3.653825,1.531016 0.400295,0.2990311 1.268111,1.1653244 1.562239,1.5594984 0.881592,1.1814594 1.395288,2.4650884 1.575251,3.9362547 0.05161,0.42189 0.0422,1.42991 -0.01754,1.880478 -0.182625,1.377204 -0.713677,2.67925 -1.548612,3.796928 -0.302373,0.40477 -1.166565,1.268962 -1.571335,1.571335 -1.537253,1.148369 -3.437111,1.719122 -5.310872,1.595484 z"
     id="path238" />
  <path
     style="font-variation-settings:normal;opacity:1;vector-effect:none;fill:#999999;fill-opacity:0;stroke-width:0.0318725;stroke-linecap:butt;stroke-linejoin:miter;stroke-miterlimit:4;stroke-dasharray:none;stroke-dashoffset:0;stroke-opacity:1;-inkscape-stroke:none;stop-color:#000000;stop-opacity:1"
     d="M 10.900398,21.924137 C 7.5390202,21.560129 4.5411953,19.44565 3.0436416,16.38247 2.5488781,15.370453 2.2896192,14.539799 2.1184907,13.418327 2.0216735,12.783845 1.9989074,11.649422 2.069559,10.98008 2.3628629,8.2013613 3.7855307,5.6964937 6.0263551,4.013415 8.7159758,1.9932461 12.222973,1.4713312 15.406282,2.6174849 c 0.493784,0.1777876 1.189819,0.5094931 1.686884,0.803909 2.694336,1.5958806 4.509646,4.4250861 4.833978,7.5338751 0.321467,3.081335 -0.8017,6.122936 -3.054421,8.271543 -1.358472,1.295688 -3.053957,2.182044 -4.889439,2.556072 -0.929664,0.189444 -2.130006,0.244442 -3.082886,0.141253 z m 2.422311,-2.016326 c 1.695904,-0.3031 3.138897,-1.051448 4.336276,-2.248826 1.307451,-1.307452 2.106562,-2.963264 2.308076,-4.782491 0.0514,-0.464051 0.04362,-1.430123 -0.01514,-1.880478 C 19.719223,9.2127028 18.931523,7.6135531 17.658985,6.3410155 16.622396,5.3044271 15.387196,4.5964403 13.992032,4.2392079 13.234368,4.0452079 12.973207,4.0159363 12,4.0159363 c -0.973207,0 -1.234368,0.029272 -1.992032,0.2232716 C 8.0355764,4.7442398 6.3140472,6.0048376 5.1985096,7.7609562 4.9811408,8.1031458 4.6072743,8.8680169 4.4662882,9.2589641 4.3164765,9.6743844 4.1516748,10.311251 4.0745258,10.772908 c -0.084308,0.504496 -0.084308,1.949688 0,2.454184 0.1394811,0.83465 0.3790016,1.580276 0.7422932,2.310757 0.4155354,0.835528 0.8632282,1.458337 1.5248919,2.121357 1.1482238,1.150577 2.5796988,1.913699 4.1499411,2.212342 0.574448,0.109253 0.789281,0.124256 1.635838,0.114238 0.659839,-0.0078 0.884707,-0.02248 1.195219,-0.07798 z"
     id="path277" />
  <path
     style="font-variation-settings:normal;opacity:1;vector-effect:none;fill:#999999;fill-opacity:0;stroke-width:0.0318725;stroke-linecap:butt;stroke-linejoin:miter;stroke-miterlimit:4;stroke-dasharray:none;stroke-dashoffset:0;stroke-opacity:1;-inkscape-stroke:none;stop-color:#000000;stop-opacity:1"
     d="M 10.900398,21.924137 C 7.5390202,21.560129 4.5411953,19.44565 3.0436416,16.38247 2.5488781,15.370453 2.2896192,14.539799 2.1184907,13.418327 2.0216735,12.783845 1.9989074,11.649422 2.069559,10.98008 2.3628629,8.2013613 3.7855307,5.6964937 6.0263551,4.013415 8.7159758,1.9932461 12.222973,1.4713312 15.406282,2.6174849 c 0.493784,0.1777876 1.189819,0.5094931 1.686884,0.803909 2.694336,1.5958806 4.509646,4.4250861 4.833978,7.5338751 0.321467,3.081335 -0.8017,6.122936 -3.054421,8.271543 -1.358472,1.295688 -3.053957,2.182044 -4.889439,2.556072 -0.929664,0.189444 -2.130006,0.244442 -3.082886,0.141253 z m 2.422311,-2.016326 c 1.695904,-0.3031 3.138897,-1.051448 4.336276,-2.248826 1.307451,-1.307452 2.106562,-2.963264 2.308076,-4.782491 0.0514,-0.464051 0.04362,-1.430123 -0.01514,-1.880478 C 19.719223,9.2127028 18.931523,7.6135531 17.658985,6.3410155 16.622396,5.3044271 15.387196,4.5964403 13.992032,4.2392079 13.234368,4.0452079 12.973207,4.0159363 12,4.0159363 c -0.973207,0 -1.234368,0.029272 -1.992032,0.2232716 C 8.0355764,4.7442398 6.3140472,6.0048376 5.1985096,7.7609562 4.9811408,8.1031458 4.6072743,8.8680169 4.4662882,9.2589641 4.3164765,9.6743844 4.1516748,10.311251 4.0745258,10.772908 c -0.084308,0.504496 -0.084308,1.949688 0,2.454184 0.1394811,0.83465 0.3790016,1.580276 0.7422932,2.310757 0.4155354,0.835528 0.8632282,1.458337 1.5248919,2.121357 1.1482238,1.150577 2.5796988,1.913699 4.1499411,2.212342 0.574448,0.109253 0.789281,0.124256 1.635838,0.114238 0.659839,-0.0078 0.884707,-0.02248 1.195219,-0.07798 z"
     id="path316" />
  <path
     style="font-variation-settings:normal;opacity:1;vector-effect:none;fill:#999999;fill-opacity:0;stroke-width:0.0318725;stroke-linecap:butt;stroke-linejoin:miter;stroke-miterlimit:4;stroke-dasharray:none;stroke-dashoffset:0;stroke-opacity:1;-inkscape-stroke:none;stop-color:#000000;stop-opacity:1"
     d="M 10.900398,21.924137 C 7.5390202,21.560129 4.5411953,19.44565 3.0436416,16.38247 2.5488781,15.370453 2.2896192,14.539799 2.1184907,13.418327 2.0216735,12.783845 1.9989074,11.649422 2.069559,10.98008 2.3628629,8.2013613 3.7855307,5.6964937 6.0263551,4.013415 8.7159758,1.9932461 12.222973,1.4713312 15.406282,2.6174849 c 0.493784,0.1777876 1.189819,0.5094931 1.686884,0.803909 2.694336,1.5958806 4.509646,4.4250861 4.833978,7.5338751 0.321467,3.081335 -0.8017,6.122936 -3.054421,8.271543 -1.358472,1.295688 -3.053957,2.182044 -4.889439,2.556072 -0.929664,0.189444 -2.130006,0.244442 -3.082886,0.141253 z m 2.422311,-2.016326 c 1.695904,-0.3031 3.138897,-1.051448 4.336276,-2.248826 1.307451,-1.307452 2.106562,-2.963264 2.308076,-4.782491 0.0514,-0.464051 0.04362,-1.430123 -0.01514,-1.880478 C 19.719223,9.2127028 18.931523,7.6135531 17.658985,6.3410155 16.622396,5.3044271 15.387196,4.5964403 13.992032,4.2392079 13.234368,4.0452079 12.973207,4.0159363 12,4.0159363 c -0.973207,0 -1.234368,0.029272 -1.992032,0.2232716 C 8.0355764,4.7442398 6.3140472,6.0048376 5.1985096,7.7609562 4.9811408,8.1031458 4.6072743,8.8680169 4.4662882,9.2589641 4.3164765,9.6743844 4.1516748,10.311251 4.0745258,10.772908 c -0.084308,0.504496 -0.084308,1.949688 0,2.454184 0.1394811,0.83465 0.3790016,1.580276 0.7422932,2.310757 0.4155354,0.835528 0.8632282,1.458337 1.5248919,2.121357 1.1482238,1.150577 2.5796988,1.913699 4.1499411,2.212342 0.574448,0.109253 0.789281,0.124256 1.635838,0.114238 0.659839,-0.0078 0.884707,-0.02248 1.195219,-0.07798 z"
     id="path355" />
  <path
     style="font-variation-settings:normal;opacity:1;vector-effect:none;fill:#999999;fill-opacity:0;stroke-width:0.0318725;stroke-linecap:butt;stroke-linejoin:miter;stroke-miterlimit:4;stroke-dasharray:none;stroke-dashoffset:0;stroke-opacity:1;-inkscape-stroke:none;stop-color:#000000;stop-opacity:1"
     d="M 11.49004,19.967731 C 9.8156743,19.857251 8.2437533,19.233668 6.9482072,18.16598 5.5057827,16.977247 4.5226872,15.335602 4.1623464,13.513944 4.0639027,13.016274 4.0285785,12.6068 4.028993,11.968127 4.0294121,11.322467 4.0816448,10.829377 4.2109227,10.250665 4.7515817,7.8304112 6.4806923,5.7251771 8.7649402,4.7060387 9.3860937,4.4289052 10.092734,4.2192802 10.772908,4.1103739 c 0.665819,-0.1066076 1.698486,-0.1125393 2.374179,-0.013637 1.288873,0.1886542 2.582495,0.7307041 3.653825,1.531016 0.400295,0.2990311 1.268111,1.1653244 1.562239,1.5594984 0.881592,1.1814594 1.395288,2.4650884 1.575251,3.9362547 0.05161,0.42189 0.0422,1.42991 -0.01754,1.880478 -0.182625,1.377204 -0.713677,2.67925 -1.548612,3.796928 -0.302373,0.40477 -1.166565,1.268962 -1.571335,1.571335 -1.537253,1.148369 -3.437111,1.719122 -5.310872,1.595484 z"
     id="path394" />
  <path
     style="font-variation-settings:normal;opacity:1;vector-effect:none;fill:#999999;fill-opacity:0;stroke-width:0.0318725;stroke-linecap:butt;stroke-linejoin:miter;stroke-miterlimit:4;stroke-dasharray:none;stroke-dashoffset:0;stroke-opacity:1;-inkscape-stroke:none;stop-color:#000000;stop-opacity:1"
     d="M 11.49004,19.967731 C 9.8156743,19.857251 8.2437533,19.233668 6.9482072,18.16598 5.5057827,16.977247 4.5226872,15.335602 4.1623464,13.513944 4.0639027,13.016274 4.0285785,12.6068 4.028993,11.968127 4.0294121,11.322467 4.0816448,10.829377 4.2109227,10.250665 4.7515817,7.8304112 6.4806923,5.7251771 8.7649402,4.7060387 9.3860937,4.4289052 10.092734,4.2192802 10.772908,4.1103739 c 0.665819,-0.1066076 1.698486,-0.1125393 2.374179,-0.013637 1.288873,0.1886542 2.582495,0.7307041 3.653825,1.531016 0.400295,0.2990311 1.268111,1.1653244 1.562239,1.5594984 0.881592,1.1814594 1.395288,2.4650884 1.575251,3.9362547 0.05161,0.42189 0.0422,1.42991 -0.01754,1.880478 -0.182625,1.377204 -0.713677,2.67925 -1.548612,3.796928 -0.302373,0.40477 -1.166565,1.268962 -1.571335,1.571335 -1.537253,1.148369 -3.437111,1.719122 -5.310872,1.595484 z"
     id="path507" />
  <path
     style="font-variation-settings:normal;opacity:1;vector-effect:none;fill:#999999;fill-opacity:0;stroke-width:0.0637449;stroke-linecap:butt;stroke-linejoin:miter;stroke-miterlimit:4;stroke-dasharray:none;stroke-dashoffset:0;stroke-opacity:1;-inkscape-stroke:none;stop-color:#000000;stop-opacity:1"
     d="M 11.077963,19.918436 C 7.0500232,19.410518 4.0495331,16.021974 4.0480651,11.979361 4.0464802,7.6149155 7.6149155,4.0464802 11.979361,4.0480651 c 2.166662,7.868e-4 4.069945,0.7889445 5.617995,2.3264369 1.157709,1.1498126 1.858663,2.4339628 2.209499,4.047809 0.173951,0.800172 0.187916,2.211951 0.02975,3.007631 -0.653178,3.285951 -3.134395,5.776162 -6.371933,6.395033 -0.656435,0.12548 -1.782958,0.169593 -2.38671,0.09346 z"
     id="path583" />
  <path
     style="font-variation-settings:normal;opacity:1;vector-effect:none;fill:#999999;fill-opacity:0;stroke-width:0.0450745;stroke-linecap:butt;stroke-linejoin:miter;stroke-miterlimit:4;stroke-dasharray:none;stroke-dashoffset:0;stroke-opacity:1;-inkscape-stroke:none;stop-color:#000000;stop-opacity:1"
     d="M 10.975649,21.92481 C 6.8710482,21.503249 3.362464,18.480879 2.3431398,14.48858 1.9198416,12.830685 1.9297867,11.029932 2.3712534,9.3980407 3.3020502,5.9573302 6.0925968,3.2098588 9.5399079,2.3400424 11.08784,1.949472 12.735383,1.9300017 14.2624,2.2842328 c 3.671804,0.8517694 6.599963,3.7916674 7.462406,7.4923236 0.244522,1.0492186 0.309912,2.5122796 0.159357,3.5655066 -0.416523,2.913827 -2.020914,5.42336 -4.508908,7.052682 -0.876477,0.57398 -2.19932,1.125821 -3.235602,1.349772 -0.959448,0.207347 -2.207918,0.278487 -3.164004,0.180293 z m 1.688092,-1.935633 c 1.347712,-0.119281 2.616617,-0.552377 3.698316,-1.262291 2.300217,-1.509624 3.645902,-3.985468 3.650157,-6.715705 0.0015,-0.93244 -0.115003,-1.657025 -0.408343,-2.5406893 C 18.805775,7.0662872 16.935379,5.194585 14.536538,4.3996209 13.540408,4.0695083 12.777961,3.9638301 11.674873,4.0029825 10.45615,4.0462393 9.533295,4.2842363 8.4064009,4.8458958 6.8249965,5.6340892 5.5775237,6.889833 4.8021802,8.4740127 3.5350617,11.062986 3.7445557,14.081688 5.3577032,16.478818 c 1.4603482,2.17007 3.890466,3.488884 6.5419738,3.5503 0.136351,0.0032 0.480179,-0.01481 0.764064,-0.03994 z"
     id="path622" />
  <path
     style="font-variation-settings:normal;opacity:1;vector-effect:none;fill:#ffffff;fill-opacity:1;stroke-width:0.0450745;stroke-linecap:butt;stroke-linejoin:miter;stroke-miterlimit:4;stroke-dasharray:none;stroke-dashoffset:0;stroke-opacity:1;-inkscape-stroke:none;stop-color:#000000;stop-opacity:1"
     d="M 10.813131,21.903467 C 9.0457166,21.689142 7.374067,21.001736 5.9099845,19.887225 4.2026872,18.587571 2.8878736,16.594617 2.34796,14.488017 2.1169475,13.586668 2.0383022,12.942036 2.0404305,11.967289 2.0430888,10.749827 2.1889241,9.8787148 2.5799732,8.7444601 3.7976069,5.2126611 6.8711565,2.6844139 10.637591,2.1164074 c 0.604834,-0.091214 1.936787,-0.1036731 2.546711,-0.023823 2.94327,0.3853285 5.520651,1.9819639 7.136125,4.420686 1.945816,2.937407 2.188508,6.6849726 0.637808,9.8487866 -1.873595,3.822601 -5.951396,6.049957 -10.145104,5.54141 z m 1.875351,-1.916553 c 1.40224,-0.130955 2.642809,-0.570304 3.790336,-1.342354 3.945331,-2.654395 4.719581,-8.156158 1.660461,-11.7991118 C 16.240576,4.5843764 13.277719,3.5606342 10.344606,4.1521907 8.7275851,4.4783149 7.0162352,5.4845706 5.9519369,6.7350336 3.7543234,9.3170487 3.3610514,12.868323 4.9470926,15.80885 c 1.5144824,2.807857 4.597335,4.471687 7.7413894,4.178064 z"
     id="path906" />
</svg>
